<?xml version="1.0" encoding="utf-8"?>
<!-- Svg Vector Icons : http://www.onlinewebfonts.com/icon -->
<!DOCTYPE svg PUBLIC "-//W3C//DTD SVG 1.1//EN" "http://www.w3.org/Graphics/SVG/1.1/DTD/svg11.dtd">
<svg version="1.1" xmlns="http://www.w3.org/2000/svg" xmlns:xlink="http://www.w3.org/1999/xlink" x="0px" y="0px" viewBox="0 0 256 256" enable-background="new 0 0 256 256" xml:space="preserve">
<metadata> Svg Vector Icons : http://www.onlinewebfonts.com/icon </metadata>
<g><g><g><path fill="#000000" d="M119.5,10.1c-14.1,1.5-24.4,3.8-35.4,8.3C47.3,33.1,20,65.8,12.2,104.4C10.4,113.3,10,118,10,128c0,16.1,2.5,29.5,8.2,43.6c13.8,34.4,42,59.8,77.9,70.2c10,2.9,19.8,4.2,31.9,4.2c18.6,0,34.1-3.5,50.6-11.2c24.5-11.6,44.6-31.7,56.2-56.2c7.8-16.4,11.2-32,11.2-50.6c0-18.6-3.5-34.1-11.2-50.6c-17-36-50.2-60.4-90.5-66.5C139.6,10.3,123.4,9.7,119.5,10.1z M138.1,28.8c11.9,1.3,22.9,4.5,33.5,9.6c20.2,9.9,35.9,25.5,45.9,45.8c22.1,44.6,7.5,98.5-34.2,126.7c-2.6,1.8-7.8,4.7-11.5,6.6c-27.6,13.7-59.9,13.7-87.6,0c-20.3-10-35.9-25.7-45.8-45.9C16.5,126.8,31,73.3,72.8,45C91.3,32.5,115.9,26.4,138.1,28.8z"/><path fill="#000000" d="M81,83c-3.7,1.3-7.1,6-7.1,10c0,4.1,3.7,9.1,7.5,10.2c2.7,0.7,89.7,0.7,92.5,0c3.8-1.1,7.5-6,7.5-10.2c0-4.1-3.7-9.1-7.5-10.2c-1.4-0.4-15.4-0.5-46.5-0.5C90.4,82.3,82.6,82.4,81,83z"/><path fill="#000000" d="M81,117.6c-1.1,0.4-2.9,1.7-4,2.8c-4.2,4.4-4.1,10.2,0.3,14.5c1.4,1.4,3,2.5,4.2,2.8c2.7,0.7,89.7,0.7,92.5,0c3.8-1.1,7.5-6,7.5-10.2c0-4.1-3.7-9.1-7.5-10.2c-1.4-0.4-15.4-0.5-46.5-0.5C90.4,116.9,82.6,117,81,117.6z"/><path fill="#000000" d="M81,152.6c-1.1,0.4-2.9,1.7-4,2.8c-4.2,4.4-4.1,10.2,0.3,14.5c1.4,1.4,3,2.5,4.2,2.8c2.7,0.7,89.7,0.7,92.5,0c3.8-1.1,7.5-6,7.5-10.2c0-4.1-3.7-9.1-7.5-10.2c-1.4-0.4-15.4-0.5-46.5-0.5C90.4,151.9,82.6,152,81,152.6z"/></g></g></g>
</svg>